<svg width="174" height="163" viewBox="0 0 174 163" fill="none" xmlns="http://www.w3.org/2000/svg">
<path d="M16.5018 75.2334C16.5328 84.0099 16.8562 91.7308 17.1938 92.2897C17.4639 92.7369 24.2985 96.865 32.187 101.455L46.64 109.726L46.6608 94.3627C46.6486 85.8739 46.8578 78.0081 47.0152 76.7289C47.3188 74.9219 50.3905 73.0779 62.1901 67.4613C71.5292 62.9042 76.6938 59.9054 76.2887 59.2347C75.8835 58.564 69.2328 54.4835 61.363 50.1814L47.1126 42.2459L31.765 50.7145L16.4175 59.1831L16.5018 75.2334Z" fill="#6200EA"/>
<path d="M70.2698 25.7932C70.4721 26.1281 76.4095 29.5498 83.3995 33.4326C90.5731 37.363 97.0799 41.2148 97.9677 41.9156C98.8556 42.6165 99.643 50.0707 99.6065 58.7239C99.5026 67.2653 99.7394 74.5769 99.9417 74.9118C100.144 75.2467 106.965 71.9296 115.209 67.3806L129.955 59.2437L129.987 43.1509C129.888 34.2745 129.633 26.6756 129.296 26.1175C129.026 25.6709 122.268 21.66 114.274 17.1404L99.7246 8.94469L84.8623 17.1457C76.7345 21.6306 70.1349 25.5699 70.2698 25.7932Z" fill="#6200EA"/>
<path d="M67.6444 42.3923L67.5774 46.8991L78.0056 52.6173L88.5013 58.4473L71.9668 68.0177L55.4322 77.5881L55.516 89.0143C55.6606 108.75 55.1505 107.393 60.4971 104.443C64.9138 102.006 65.06 101.478 64.9504 93.344C64.7874 77.9388 63.3064 78.309 82.0554 88.8224L98.9783 98.1086L112.926 90.4126L126.873 82.7166L122.437 80.2476L118.069 77.8904L107.173 83.4554C101.178 86.6145 96.1426 88.797 96.0076 88.5735C95.8051 88.2382 95.6092 79.7049 95.5031 69.781L95.2686 51.4355L82.2792 44.2996C75.0984 40.3653 68.8737 37.2443 68.4088 37.5008C67.9439 37.7574 67.5429 39.9155 67.6444 42.3923Z" fill="#6200EA"/>
<path d="M69.4663 107.456L70.0463 123.549L85.1438 131.561L100.356 139.507L115.539 130.741L130.723 121.975L130.327 105.927L130.002 89.9887L115.069 98.1577L100.137 106.327L85.2943 98.4687C77.0172 94.0541 70.0365 90.6995 69.5764 90.9652C69.2313 91.1644 69.1502 98.7468 69.4663 107.456Z" fill="#6200EA"/>
</svg>
